<svg width="23" height="31" viewBox="0 0 23 31" fill="none" xmlns="http://www.w3.org/2000/svg">
<path d="M5.14183 31V27.5556H0V24.1111H3.42788V6.88889H0V3.44444H5.14183V0H8.56971V3.44444H11.9976V0H15.4255V3.65972C16.9109 4.06157 18.1392 4.87245 19.1105 6.09236C20.0817 7.31227 20.5673 8.72593 20.5673 10.3333C20.5673 11.1657 20.4245 11.9623 20.1388 12.7229C19.8532 13.4836 19.4532 14.1653 18.9391 14.7681C19.9389 15.3708 20.7458 16.1889 21.36 17.2222C21.9742 18.2556 22.2812 19.4037 22.2812 20.6667C22.2812 22.5611 21.61 24.1829 20.2674 25.5319C18.9248 26.881 17.3108 27.5556 15.4255 27.5556V31H11.9976V27.5556H8.56971V31H5.14183ZM6.85577 13.7778H13.7115C14.6542 13.7778 15.4612 13.4405 16.1325 12.766C16.8038 12.0914 17.1394 11.2806 17.1394 10.3333C17.1394 9.38611 16.8038 8.57523 16.1325 7.90069C15.4612 7.22616 14.6542 6.88889 13.7115 6.88889H6.85577V13.7778ZM6.85577 24.1111H15.4255C16.3681 24.1111 17.1751 23.7738 17.8464 23.0993C18.5177 22.4248 18.8534 21.6139 18.8534 20.6667C18.8534 19.7194 18.5177 18.9086 17.8464 18.234C17.1751 17.5595 16.3681 17.2222 15.4255 17.2222H6.85577V24.1111Z" fill="white"/>
</svg>
